# xmcd
#
# Track frame offsets:
# 150
# 17654
# 34926
# 52420
#
# Disc length: 907 seconds
#
#
# Revision: 0
# Processed by: cddbd v1.5.2PL0 Copyright (c) Steve Scherf et al.
# Submitted via: FreeRIP 2.40 
#
DISCID=32038904
DTITLE=Janet Jackson - All Nite (Don't Stop) [CD Single)
DYEAR=2004
DGENRE=Hip-Hop
TTITLE0=All Nite (Don't Stop) - Main
TTITLE1=All Nite (Don't Stop) - Instrumental
TTITLE2=All Nite (Don't Stop) - A Capella
TTITLE3=All Nite (Don't Stop) - Album Version
EXTD=
EXTT0=
EXTT1=
EXTT2=
EXTT3=
PLAYORDER=
